:FULLY-SPECIFIED
:FORCE-ALL-JOINTS-BE-3DOF
:DEGREES
2956
root -5.89556 13.2637 -28.9236 1236.82 -66.8475 -153.665
lfemur -67.6453 42.4601 -6.85105
ltibia 76.4357 0 0
lfoot -7.78415 -2.3803 0
ltoes -38.7081 0 0
rfemur -34.1431 -17.3163 23.0479
rtibia 90.1594 0 0
rfoot -40.2431 -30.12 0
rtoes -13.7452 0 0
lowerback 16.2352 5.25836 1.38004
upperback -4.37072 7.56186 1.43423
thorax -14.062 3.44477 -1.28547
lowerneck -2.81501 9.15892 1.42645
upperneck 7.96891 11.9948 1.77011
head 3.05791 6.03571 0.781663
lclavicle 8.96385e-15 8.78702e-15 0
lhumerus 6.05239 14.1137 82.8118
lradius 90.5044 0 0
lwrist -17.7068 0 0
lhand -38.4753 388.734 0
lfingers 7.12502 0 0
lthumb -11.4971 -661.616 0
rclavicle 8.96385e-15 8.78702e-15 0
rhumerus -55.7223 49.5028 -109.756
rradius 112.56 0 0
rwrist -81.3 0 0
rhand 6.41315 -385.599 0
rfingers 7.12502 0 0
rthumb 31.7091 307.218 0
2957
root -5.84181 13.3119 -28.9902 1234.38 -67.0045 -151.121
lfemur -67.5687 41.7876 -7.01161
ltibia 75.5912 0 0
lfoot -7.75368 -2.07011 0
ltoes -38.5655 0 0
rfemur -34.1506 -16.9821 23.26
rtibia 89.8297 0 0
rfoot -40.0138 -30.0899 0
rtoes -13.7173 0 0
lowerback 16.2287 5.23262 1.37767
upperback -4.32545 7.52232 1.41475
thorax -14.0051 3.42751 -1.29165
lowerneck -2.75984 8.97034 1.28787
upperneck 7.77915 11.7489 1.81781
head 2.98654 5.91207 0.813208
lclavicle 8.25712e-15 8.00209e-15 0
lhumerus 6.20175 13.8885 82.7735
lradius 90.3731 0 0
lwrist -17.3455 0 0
lhand -38.2448 388.781 0
lfingers 7.12502 0 0
lthumb -11.2747 -661.562 0
rclavicle 8.25712e-15 8.00209e-15 0
rhumerus -54.4576 48.8067 -109.049
rradius 112.421 0 0
rwrist -80.9096 0 0
rhand 5.98733 -385.707 0
rfingers 7.12502 0 0
rthumb 31.3005 307.06 0
2958
root -5.78805 13.36 -29.0568 1231.73 -67.1901 -148.376
lfemur -67.4895 41.0625 -7.18767
ltibia 74.6679 0 0
lfoot -7.72059 -1.73759 0
ltoes -38.4027 0 0
rfemur -34.1543 -16.6197 23.4899
rtibia 89.4737 0 0
rfoot -39.7684 -30.0548 0
rtoes -13.6889 0 0
lowerback 16.222 5.20626 1.37594
upperback -4.27704 7.4817 1.39352
thorax -13.9445 3.4098 -1.29954
lowerneck -2.70102 8.76905 1.14072
upperneck 7.57635 11.4866 1.8683
head 2.90976 5.7802 0.846645
lclavicle 7.6129e-15 7.15684e-15 0
lhumerus 6.35673 13.6517 82.7348
lradius 90.238 0 0
lwrist -16.953 0 0
lhand -37.9975 388.838 0
lfingers 7.12502 0 0
lthumb -11.036 -661.498 0
rclavicle 7.6129e-15 7.15684e-15 0
rhumerus -53.1025 48.0496 -108.295
rradius 112.274 0 0
rwrist -80.492 0 0
rhand 5.52567 -385.825 0
rfingers 7.12502 0 0
rthumb 30.8576 306.889 0
2959
root -5.7343 13.4082 -29.1234 1228.91 -67.4016 -145.441
lfemur -67.4076 40.2882 -7.37807
ltibia 73.6713 0 0
lfoot -7.6849 -1.3842 0
ltoes -38.221 0 0
rfemur -34.1544 -16.2312 23.7365
rtibia 89.093 0 0
rfoot -39.5075 -30.015 0
rtoes -13.6599 0 0
lowerback 16.2152 5.17926 1.37476
upperback -4.22569 7.43996 1.37067
thorax -13.8804 3.39161 -1.30895
lowerneck -2.63867 8.55566 0.985382
upperneck 7.36125 11.2085 1.92151
head 2.82792 5.64047 0.881908
lclavicle 7.0282e-15 6.25584e-15 0
lhumerus 6.51737 13.4033 82.6956
lradius 90.099 0 0
lwrist -16.5314 0 0
lhand -37.7344 388.902 0
lfingers 7.12502 0 0
lthumb -10.782 -661.426 0
rclavicle 7.0282e-15 6.25584e-15 0
rhumerus -51.6618 47.2356 -107.497
rradius 112.12 0 0
rwrist -80.0486 0 0
rhand 5.03051 -385.952 0
rfingers 7.12502 0 0
rthumb 30.3824 306.705 0
2960
root -5.68054 13.4564 -29.19 1225.91 -67.6361 -142.328
lfemur -67.3229 39.4677 -7.58167
ltibia 72.6069 0 0
lfoot -7.64665 -1.01138 0
ltoes -38.0213 0 0
rfemur -34.1512 -15.8182 23.9987
rtibia 88.6888 0 0
rfoot -39.2322 -29.9708 0
rtoes -13.63 0 0
lowerback 16.2082 5.1516 1.37401
upperback -4.17157 7.3971 1.34633
thorax -13.8128 3.37296 -1.31968
lowerneck -2.57295 8.33076 0.822273
upperneck 7.1346 10.9154 1.97739
head 2.74134 5.49326 0.918934
lclavicle 6.50003e-15 5.30362e-15 0
lhumerus 6.68372 13.1435 82.656
lradius 89.9561 0 0
lwrist -16.0828 0 0
lhand -37.4566 388.974 0
lfingers 7.12502 0 0
lthumb -10.5139 -661.346 0
rclavicle 6.50003e-15 5.30362e-15 0
rhumerus -50.1403 46.3686 -106.656
rradius 111.96 0 0
rwrist -79.5809 0 0
rhand 4.5042 -386.088 0
rfingers 7.12502 0 0
rthumb 29.8774 306.509 0
2961
root -5.62679 13.5045 -29.2565 1222.75 -67.8909 -139.049
lfemur -67.235 38.6042 -7.7973
ltibia 71.48 0 0
lfoot -7.60586 -0.620576 0
ltoes -37.8047 0 0
rfemur -34.1451 -15.3828 24.2753
rtibia 88.2625 0 0
rfoot -38.9432 -29.9226 0
rtoes -13.599 0 0
lowerback 16.201 5.12326 1.37361
upperback -4.11486 7.35307 1.32063
thorax -13.7422 3.35381 -1.33157
lowerneck -2.50397 8.09495 0.651795
upperneck 6.89715 10.6082 2.0359
head 2.65036 5.33895 0.957658
lclavicle 6.02539e-15 4.30473e-15 0
lhumerus 6.85581 12.8722 82.616
lradius 89.8091 0 0
lwrist -15.6094 0 0
lhand -37.1652 389.054 0
lfingers 7.12502 0 0
lthumb -10.2325 -661.258 0
rclavicle 6.02539e-15 4.30473e-15 0
rhumerus -48.5428 45.4529 -105.775
rradius 111.792 0 0
rwrist -79.0905 0 0
rhand 3.94911 -386.232 0
rfingers 7.12502 0 0
rthumb 29.3447 306.301 0
2962
root -5.57304 13.5527 -29.3231 1219.44 -68.1633 -135.617
lfemur -67.1437 37.701 -8.02379
ltibia 70.2962 0 0
lfoot -7.56255 -0.213236 0
ltoes -37.5723 0 0
rfemur -34.1365 -14.9268 24.5653
rtibia 87.8157 0 0
rfoot -38.6415 -29.8708 0
rtoes -13.5668 0 0
lowerback 16.1935 5.09421 1.37345
upperback -4.05574 7.30787 1.2937
thorax -13.6686 3.33416 -1.34442
lowerneck -2.43189 7.84882 0.474352
upperneck 6.64965 10.2875 2.09699
head 2.55531 5.17792 0.998015
lclavicle 5.60129e-15 3.26374e-15 0
lhumerus 7.03369 12.5897 82.5756
lradius 89.6579 0 0
lwrist -15.1131 0 0
lhand -36.8612 389.14 0
lfingers 7.12502 0 0
lthumb -9.93908 -661.164 0
rclavicle 5.60129e-15 3.26374e-15 0
rhumerus -46.874 44.4923 -104.855
rradius 111.619 0 0
rwrist -78.5789 0 0
rhand 3.36757 -386.384 0
rfingers 7.12502 0 0
rthumb 28.7866 306.083 0
2963
root -5.51928 13.6009 -29.3897 1215.99 -68.4503 -132.042
lfemur -67.0488 36.7612 -8.26
ltibia 69.0607 0 0
lfoot -7.51675 0.209198 0
ltoes -37.3251 0 0
rfemur -34.1255 -14.4521 24.8674
rtibia 87.3497 0 0
rfoot -38.3279 -29.8157 0
rtoes -13.5331 0 0
lowerback 16.1858 5.06443 1.37345
upperback -3.99438 7.26146 1.26566
thorax -13.5922 3.314 -1.35805
lowerneck -2.35684 7.59298 0.290349
upperneck 6.39284 9.95407 2.1606
head 2.45653 5.01054 1.03994
lclavicle 5.22474e-15 2.18519e-15 0
lhumerus 7.21739 12.2959 82.5347
lradius 89.5025 0 0
lwrist -14.596 0 0
lhand -36.5457 389.232 0
lfingers 7.12502 0 0
lthumb -9.63452 -661.063 0
rclavicle 5.22474e-15 2.18519e-15 0
rhumerus -45.1388 43.491 -103.9
rradius 111.439 0 0
rwrist -78.0476 0 0
rhand 2.76196 -386.541 0
rfingers 7.12502 0 0
rthumb 28.2055 305.856 0
2964
root -5.46553 13.649 -29.4563 1212.42 -68.7493 -128.338
lfemur -66.9502 35.7879 -8.50477
ltibia 67.779 0 0
lfoot -7.46848 0.645279 0
ltoes -37.0643 0 0
rfemur -34.1126 -13.9605 25.1805
rtibia 86.8658 0 0
rfoot -38.0032 -29.7576 0
rtoes -13.4978 0 0
lowerback 16.1778 5.03389 1.37349
upperback -3.93096 7.21383 1.23665
thorax -13.5132 3.29332 -1.37229
lowerneck -2.27895 7.32801 0.100191
upperneck 6.12746 9.60875 2.22668
head 2.35435 4.8372 1.08338
lclavicle 4.89273e-15 1.07363e-15 0
lhumerus 7.40696 11.9909 82.4935
lradius 89.3427 0 0
lwrist -14.0604 0 0
lhand -36.2197 389.329 0
lfingers 7.12502 0 0
lthumb -9.31988 -660.956 0
rclavicle 4.89273e-15 1.07363e-15 0
rhumerus -43.3419 42.4529 -102.912
rradius 111.254 0 0
rwrist -77.4981 0 0
rhand 2.1346 -386.705 0
rfingers 7.12502 0 0
rthumb 27.6034 305.621 0
2965
root -5.41178 13.6972 -29.5229 1208.73 -69.0575 -124.515
lfemur -66.8475 34.7844 -8.75692
ltibia 66.4566 0 0
lfoot -7.41778 1.09356 0
ltoes -36.7909 0 0
rfemur -34.0981 -13.454 25.5034
rtibia 86.3655 0 0
rfoot -37.6684 -29.6969 0
rtoes -13.4605 0 0
lowerback 16.1695 5.00258 1.37347
upperback -3.86567 7.16495 1.2068
thorax -13.4319 3.27211 -1.38694
lowerneck -2.19836 7.05453 -0.0957175
upperneck 5.85427 9.25226 2.29519
head 2.24911 4.65826 1.12825
lclavicle 4.60228e-15 -6.63835e-17 0
lhumerus 7.60244 11.6749 82.4518
lradius 89.1785 0 0
lwrist -13.5082 0 0
lhand -35.8844 389.431 0
lfingers 7.12502 0 0
lthumb -8.99622 -660.844 0
rclavicle 4.60228e-15 -6.63835e-17 0
rhumerus -41.4881 41.3822 -101.892
rradius 111.063 0 0
rwrist -76.9319 0 0
rhand 1.48787 -386.874 0
rfingers 7.12502 0 0
rthumb 26.9828 305.378 0
2966
root -5.35802 13.7454 -29.5894 1204.94 -69.372 -120.586
lfemur -66.7406 33.7539 -9.01532
ltibia 65.0988 0 0
lfoot -7.36467 1.5526 0
ltoes -36.506 0 0
rfemur -34.0822 -12.9344 25.8351
rtibia 85.8503 0 0
rfoot -37.3244 -29.634 0
rtoes -13.4211 0 0
lowerback 16.1608 4.97047 1.37332
upperback -3.79867 7.11481 1.17623
thorax -13.3484 3.25036 -1.40183
lowerneck -2.1152 6.77312 -0.296972
upperneck 5.57402 8.88535 2.36607
head 2.14114 4.47412 1.1745
lclavicle 4.35039e-15 -1.2303e-15 0
lhumerus 7.80388 11.3478 82.4097
lradius 89.0098 0 0
lwrist -12.9415 0 0
lhand -35.5408 389.538 0
lfingers 7.12502 0 0
lthumb -8.66456 -660.728 0
rclavicle 4.35039e-15 -1.2303e-15 0
rhumerus -39.5822 40.2828 -100.842
rradius 110.866 0 0
rwrist -76.3505 0 0
rhand 0.824105 -387.048 0
rfingers 7.12502 0 0
rthumb 26.3458 305.128 0
2967
root -5.30427 13.7935 -29.656 1201.06 -69.6902 -116.562
lfemur -66.6292 32.6995 -9.27879
ltibia 63.711 0 0
lfoot -7.30917 2.02095 0
ltoes -36.2106 0 0
rfemur -34.0653 -12.4035 26.1744
rtibia 85.3214 0 0
rfoot -36.9719 -29.5691 0
rtoes -13.3795 0 0
lowerback 16.1518 4.93754 1.37291
upperback -3.73016 7.06337 1.14508
thorax -13.2629 3.22805 -1.41677
lowerneck -2.02962 6.48438 -0.503168
upperneck 5.28744 8.50879 2.43927
head 2.03078 4.28513 1.22207
lclavicle 4.13407e-15 -2.41358e-15 0
lhumerus 8.0113 11.0098 82.3673
lradius 88.8364 0 0
lwrist -12.3625 0 0
lhand -35.19 389.648 0
lfingers 7.12502 0 0
lthumb -8.32593 -660.608 0
rclavicle 4.13407e-15 -2.41358e-15 0
rhumerus -37.629 39.1589 -99.7664
rradius 110.664 0 0
rwrist -75.7554 0 0
rhand 0.145663 -387.226 0
rfingers 7.12502 0 0
rthumb 25.6947 304.873 0
